<?xml version="1.0" encoding="UTF-8"?>
<svg id="Layer_1" xmlns="http://www.w3.org/2000/svg" version="1.1" viewBox="0 0 630.26 612">
  <!-- Generator: Adobe Illustrator 30.0.0, SVG Export Plug-In . SVG Version: 2.1.1 Build 123)  -->
  <defs>
    <style>
      .st0 {
        fill: none;
        stroke: #223c77;
        stroke-linecap: round;
        stroke-linejoin: round;
        stroke-width: 2.37px;
      }

      .st1 {
        fill: #faa21f;
      }

      .st2 {
        stroke: #fddb32;
        stroke-miterlimit: 10;
        stroke-width: .7px;
      }

      .st2, .st3 {
        fill: #223c77;
      }

      .st4 {
        fill: #fff;
      }

      .st5 {
        fill: #fddb32;
      }

      .st6 {
        fill: #5cbceb;
      }
    </style>
  </defs>
  <circle class="st3" cx="312.29" cy="284.3" r="249.53"/>
  <g>
    <path class="st6" d="M95.79,453.56c-26.19,0-47.5-21.31-47.5-47.5s21.31-47.5,47.5-47.5,47.5,21.31,47.5,47.5-21.31,47.5-47.5,47.5Z"/>
    <path class="st3" d="M95.79,362.86c23.86,0,43.2,19.34,43.2,43.2s-19.34,43.2-43.2,43.2-43.2-19.34-43.2-43.2,19.34-43.2,43.2-43.2M95.79,354.25c-28.57,0-51.81,23.24-51.81,51.81s23.24,51.81,51.81,51.81,51.81-23.24,51.81-51.81-23.24-51.81-51.81-51.81h0Z"/>
  </g>
  <path class="st3" d="M127.11,405.77c.03-.39.05-.79.05-1.2-.02-8.47-6.63-15.38-14.9-15.39-.3,0-.59.02-.89.04-2.13-5.78-7.54-9.91-13.92-9.91-6.74,0-12.4,4.62-14.25,10.91-1.41-.71-3-1.04-4.67-1.04-5.95,0-10.69,4.9-10.7,10.96,0,.32.01.63.04.94-4.71.08-8.44,4.04-8.45,8.86,0,4.86,3.81,8.85,8.59,8.85h6.28c-.04.34-.06.68-.06,1.02,0,4.86,3.81,8.85,8.59,8.85h38.9c6.52,0,11.73-5.46,11.75-12.12,0-4.68-2.57-8.76-6.36-10.78ZM74.94,416.33h-6.91c-3.35,0-6.12-2.83-6.13-6.39,0-3.57,2.78-6.38,6.13-6.39.36,0,.73.04,1.1.11.41.08.83-.06,1.12-.36.29-.3.39-.73.3-1.13-.15-.66-.23-1.33-.23-2.03,0-4.76,3.72-8.56,8.23-8.57,1.77,0,3.4.58,4.75,1.58.34.25.79.31,1.19.15.4-.16.68-.51.76-.93,1.06-6.05,6.14-10.61,12.22-10.6,5.1,0,9.5,3.2,11.41,7.81-5.19,1.25-9.32,5.3-10.85,10.5-1.41-.71-3-1.04-4.67-1.04-5.94,0-10.69,4.9-10.7,10.96,0,.32.01.64.04.95-3.5.06-6.46,2.27-7.75,5.37ZM121.73,426.2h0s-38.9,0-38.9,0c-3.35,0-6.12-2.83-6.13-6.39,0-3.57,2.78-6.38,6.13-6.39.36,0,.73.04,1.1.11.41.08.83-.06,1.12-.36.29-.3.39-.73.3-1.13-.15-.66-.23-1.33-.23-2.03,0-4.76,3.72-8.56,8.23-8.57,1.77,0,3.4.59,4.75,1.58.34.25.8.31,1.19.15.4-.16.68-.51.76-.94,1.06-6.05,6.14-10.61,12.22-10.6,6.83.01,12.43,5.75,12.43,12.92,0,.59-.05,1.18-.13,1.77-.07.55.23,1.07.73,1.29,3.33,1.45,5.71,4.88,5.71,8.91,0,5.36-4.19,9.64-9.28,9.65Z"/>
  <g>
    <g>
      <path class="st6" d="M539.5,452.51c-26.19,0-47.5-21.31-47.5-47.5s21.31-47.5,47.5-47.5,47.5,21.31,47.5,47.5-21.31,47.5-47.5,47.5Z"/>
      <path class="st3" d="M539.5,361.81c23.86,0,43.2,19.34,43.2,43.2s-19.34,43.2-43.2,43.2-43.2-19.34-43.2-43.2,19.34-43.2,43.2-43.2M539.5,353.19c-28.57,0-51.81,23.24-51.81,51.81s23.24,51.81,51.81,51.81,51.81-23.24,51.81-51.81-23.24-51.81-51.81-51.81h0Z"/>
    </g>
    <path class="st3" d="M569.58,420.51l-11.92-6.88,10.12-2.71c.75-.2,1.19-.97.99-1.71-.2-.75-.97-1.19-1.71-.99h0l-12.82,3.43-6.87-3.97c.34-.91.53-1.89.53-2.92s-.19-2.01-.53-2.92l6.87-3.97,12.82,3.43c.12.03.24.05.36.05.62,0,1.18-.41,1.35-1.04.2-.75-.24-1.51-.99-1.71l-10.12-2.71,11.92-6.88c.67-.39.9-1.24.51-1.91-.38-.67-1.24-.9-1.91-.51l-11.91,6.88,2.71-10.12c.2-.75-.25-1.51-.99-1.71-.75-.2-1.51.24-1.71.99h0s-3.43,12.82-3.43,12.82l-6.87,3.97c-1.26-1.52-3.04-2.58-5.07-2.92v-7.94l9.38-9.38c.55-.55.55-1.43,0-1.98-.55-.55-1.43-.55-1.98,0l-7.41,7.4v-14.81c0-.77-.62-1.4-1.4-1.4s-1.4.63-1.4,1.4v14.81l-7.41-7.4c-.55-.55-1.43-.55-1.98,0-.55.55-.55,1.43,0,1.98l9.38,9.38v7.94c-2.03.34-3.81,1.4-5.07,2.92l-6.87-3.96-3.44-12.82c-.2-.75-.97-1.19-1.72-.99-.75.2-1.19.97-.99,1.71h0l2.71,10.12-11.92-6.88c-.67-.39-1.52-.16-1.91.51-.39.67-.16,1.52.51,1.91l11.92,6.88-10.12,2.71c-.75.2-1.19.97-.99,1.71.16.63.73,1.04,1.35,1.04.12,0,.24-.02.36-.05l12.82-3.43,6.87,3.97c-.34.91-.53,1.89-.53,2.93s.19,2.01.53,2.92l-6.88,3.97-12.82-3.44c-.75-.2-1.51.24-1.71.99-.2.75.24,1.51.99,1.72h0s10.12,2.71,10.12,2.71l-11.92,6.88c-.67.38-.9,1.24-.51,1.91.26.45.73.7,1.21.7.24,0,.48-.06.7-.19l11.91-6.88-2.71,10.12c-.2.75.24,1.51.99,1.71.12.03.24.05.36.05.62,0,1.18-.41,1.35-1.04l3.43-12.82,6.87-3.97c1.26,1.52,3.04,2.58,5.07,2.92v7.94l-9.39,9.39c-.55.55-.55,1.43,0,1.98.55.55,1.44.55,1.98,0l7.4-7.41v14.81c0,.77.62,1.4,1.4,1.4s1.4-.63,1.4-1.4v-14.81l7.41,7.4c.27.27.63.41.99.41s.72-.14.99-.41c.55-.55.55-1.43,0-1.98h0s-9.38-9.39-9.38-9.39v-7.94c2.03-.34,3.81-1.4,5.07-2.92l6.87,3.97,3.43,12.82c.17.62.73,1.04,1.35,1.04.12,0,.24-.01.36-.05.74-.2,1.19-.97.99-1.72l-2.71-10.12,11.91,6.88c.22.13.46.19.7.19.48,0,.96-.25,1.21-.7.39-.67.16-1.53-.51-1.91ZM539.5,410.36c-3.09,0-5.59-2.5-5.6-5.59,0-3.09,2.5-5.59,5.59-5.6,0,0,0,0,0,0s0,0,0,0c3.08.01,5.58,2.51,5.59,5.6,0,3.09-2.51,5.59-5.6,5.59Z"/>
  </g>
  <g>
    <g>
      <path class="st5" d="M189.12,543.51c-26.19,0-47.5-21.31-47.5-47.5s21.31-47.5,47.5-47.5,47.5,21.31,47.5,47.5-21.31,47.5-47.5,47.5Z"/>
      <path class="st3" d="M189.12,452.81c23.86,0,43.2,19.34,43.2,43.2s-19.34,43.2-43.2,43.2-43.2-19.34-43.2-43.2,19.34-43.2,43.2-43.2M189.12,444.2c-28.57,0-51.81,23.24-51.81,51.81s23.24,51.81,51.81,51.81,51.81-23.24,51.81-51.81-23.24-51.81-51.81-51.81h0Z"/>
    </g>
    <path class="st3" d="M205.07,479.95c-.77,0-1.4.63-1.4,1.4s.63,1.4,1.4,1.4c3.86,0,6.99,3.13,6.99,6.99,0,3.86-3.13,6.99-6.99,7h-47.57c-.77,0-1.4.63-1.4,1.4s.63,1.4,1.4,1.4h47.57c5.41,0,9.79-4.39,9.79-9.79,0-5.41-4.38-9.79-9.79-9.79ZM149.1,491.14h36.37c7.73,0,13.99-6.26,13.99-13.99s-6.26-13.99-13.99-13.99-13.99,6.26-13.99,13.99c0,.77.63,1.4,1.4,1.4s1.4-.63,1.4-1.4c.01-6.18,5.01-11.18,11.19-11.19,6.18.01,11.18,5.01,11.19,11.19-.01,6.18-5.01,11.18-11.19,11.19h-36.37c-.77,0-1.4.63-1.4,1.4s.63,1.4,1.4,1.4ZM193.87,505.14h-50.36c-.77,0-1.4.63-1.4,1.4s.63,1.4,1.4,1.4h50.36c3.86,0,6.99,3.13,7,7,0,3.86-3.13,6.99-7,6.99-3.86,0-6.99-3.13-6.99-6.99,0-.77-.63-1.4-1.4-1.4s-1.4.63-1.4,1.4c0,5.41,4.38,9.79,9.79,9.79s9.79-4.39,9.8-9.79c0-5.41-4.38-9.79-9.8-9.79Z"/>
  </g>
  <g>
    <path class="st1" d="M315.92,576.14c-26.19,0-47.5-21.31-47.5-47.5s21.31-47.5,47.5-47.5,47.5,21.31,47.5,47.5-21.31,47.5-47.5,47.5Z"/>
    <path class="st3" d="M315.92,485.44c23.86,0,43.2,19.34,43.2,43.2s-19.34,43.2-43.2,43.2-43.2-19.34-43.2-43.2,19.34-43.2,43.2-43.2M315.92,476.82c-28.57,0-51.81,23.24-51.81,51.81s23.24,51.81,51.81,51.81,51.81-23.24,51.81-51.81-23.24-51.81-51.81-51.81h0Z"/>
  </g>
  <g>
    <g>
      <g>
        <path class="st0" d="M349.85,529c0,18.3-14.83,33.13-33.13,33.13s-33.13-14.83-33.13-33.13,14.83-33.13,33.13-33.13,33.13,14.83,33.13,33.13Z"/>
        <path class="st0" d="M334.69,529c0,18.3-8.04,33.13-17.96,33.13s-17.96-14.83-17.96-33.13,8.04-33.13,17.96-33.13,17.96,14.83,17.96,33.13Z"/>
      </g>
      <line class="st0" x1="283.6" y1="529" x2="349.85" y2="529"/>
      <path class="st0" d="M290.38,509.25c3.07,2.39,10.68,6.58,26.35,6.58s23.27-4.19,26.35-6.58"/>
      <path class="st0" d="M290.38,548.75c3.07-2.39,10.68-6.58,26.35-6.58s23.27,4.19,26.35,6.58"/>
    </g>
    <line class="st0" x1="316.72" y1="495.87" x2="316.72" y2="562.01"/>
  </g>
  <g>
    <g>
      <path class="st5" d="M444.7,543.51c-26.19,0-47.5-21.31-47.5-47.5s21.31-47.5,47.5-47.5,47.5,21.31,47.5,47.5-21.31,47.5-47.5,47.5Z"/>
      <path class="st3" d="M444.7,452.81c23.86,0,43.2,19.34,43.2,43.2s-19.34,43.2-43.2,43.2-43.2-19.34-43.2-43.2,19.34-43.2,43.2-43.2M444.7,444.2c-28.57,0-51.81,23.24-51.81,51.81s23.24,51.81,51.81,51.81,51.81-23.24,51.81-51.81-23.24-51.81-51.81-51.81h0Z"/>
    </g>
    <path class="st2" d="M462.03,493.34c-.78-.27-1.64-.12-2.28.42-.02.02-2.66,2.25-5.54,5.11-2.89,2.93-5.99,6.17-7.18,9.39-.37,1.07-.55,2.16-.55,3.25,0,3.87,2.26,7.55,6.05,9.02,1.05.4,2.13.6,3.2.6,3.84,0,7.36-2.51,8.7-6.36.54-1.6.65-3.37.66-5.34,0-6.24-1.54-14.25-1.55-14.33-.15-.82-.72-1.48-1.51-1.76ZM460.04,513.24c-.72,2.04-2.51,3.23-4.3,3.23-.51,0-1.02-.09-1.53-.28-1.84-.7-3.06-2.6-3.06-4.68,0-.57.1-1.15.29-1.72.43-1.48,3.34-4.98,6.07-7.62.75-.74,1.48-1.44,2.15-2.07.39,2.75.81,6.38.8,9.33.01,1.7-.17,3.18-.4,3.81ZM434.12,493.34c-.79-.27-1.65-.12-2.28.42-.02.02-2.66,2.25-5.54,5.11-2.88,2.93-5.99,6.17-7.18,9.39-.37,1.07-.55,2.16-.55,3.25,0,3.87,2.26,7.55,6.05,9.02,1.05.4,2.13.6,3.2.6,3.84,0,7.36-2.51,8.7-6.36.53-1.6.65-3.37.66-5.34,0-6.24-1.54-14.25-1.54-14.33-.16-.82-.73-1.48-1.51-1.76ZM432.12,513.24c-.72,2.04-2.5,3.23-4.3,3.23-.51,0-1.02-.09-1.53-.28-1.84-.7-3.06-2.6-3.07-4.68,0-.57.1-1.15.3-1.72.43-1.48,3.34-4.98,6.06-7.62.75-.74,1.48-1.44,2.15-2.07.39,2.75.81,6.38.8,9.33,0,1.7-.17,3.18-.4,3.81Z"/>
    <path class="st2" d="M452.74,463.81c-.79-.27-1.65-.12-2.28.42-.02.02-2.66,2.25-5.54,5.11-2.88,2.93-5.99,6.17-7.18,9.39-.37,1.07-.55,2.16-.55,3.25,0,3.87,2.26,7.55,6.05,9.02,1.05.4,2.13.6,3.2.6,3.84,0,7.36-2.51,8.7-6.36.53-1.6.65-3.37.66-5.34,0-6.24-1.54-14.25-1.54-14.33-.16-.82-.73-1.48-1.51-1.76ZM450.74,483.71c-.72,2.04-2.5,3.23-4.3,3.23-.51,0-1.02-.09-1.53-.28-1.84-.7-3.06-2.6-3.07-4.68,0-.57.1-1.15.3-1.72.43-1.48,3.34-4.98,6.06-7.62.75-.74,1.48-1.44,2.15-2.07.39,2.75.81,6.38.8,9.33,0,1.7-.17,3.18-.4,3.81Z"/>
  </g>
  <path class="st4" d="M211.54,251.59h-30.58c-4.21-7.6-11.97-11.65-22.33-11.65-17.8,0-29.61,12.62-29.61,32.36,0,21.03,11.97,33.33,31.87,33.33,13.75,0,23.3-7.28,27.5-20.06h-35.11v-20.39h60.19v25.72c-5.82,19.58-24.75,39.15-54.68,39.15-33.98,0-57.92-23.78-57.92-57.76s23.78-57.92,57.76-57.92c27.18,0,46.92,13.91,52.9,37.21Z"/>
  <path class="st4" d="M327.16,272.47c0,33.65-23.3,56.79-59.54,56.79h-42.55v-113.58h42.55c36.24,0,59.54,22.97,59.54,56.79ZM265.85,305.31c20.87,0,33.17-11.97,33.17-32.84s-12.3-33.17-33.17-33.17h-13.1v66.01h13.1Z"/>
  <path class="st4" d="M406.52,237.84h-41.9v22.97h37.05v21.36h-37.05v24.92h41.9v22.16h-69.57v-113.58h69.57v22.16Z"/>
  <path class="st4" d="M469.95,294.47l-20.39,34.78h-31.39l36.4-57.76-37.21-55.82h32.2l22.81,34.3,20.06-34.3h31.39l-36.08,57.27,37.53,56.3h-32.2l-23.14-34.78Z"/>
</svg>
